# xmcd
#
# Track frame offsets:
#	150
#	29446
#	47423
#	52143
#	75231
#	97909
#	120373
#	139838
#	163505
#	166263
#	186622
#	206683
#
# Disc length: 3372 seconds
#
# Revision: 5
# Processed by: cddbd v1.5.2PL0 Copyright (c) Steve Scherf et al.
# Submitted via: audiograbber 1.83.01
#
DISCID=990d2a0c
DTITLE=Various Artist - Songs 4 worship Worship To The Heart Of Ireland (Disk 1
DTITLE=)
DYEAR=2004
DGENRE=Worship and Praise
TTITLE0=Robin Mark - Days of Elijah
TTITLE1=Kathryn Scott - You're Good Lord
TTITLE2=Mulhaires Traditional Irish Reel - Mulhaires Traditional Irish Reel
TTITLE3=Robin Mark - Take Us To The River
TTITLE4=Brian Houston - Your Wisper To My Soul
TTITLE5=Eoghan Heaslip - A Shield About Me
TTITLE6=Brent Miller - A Tousand Tongues
TTITLE7=Kathryn Scott - Breathe On Me Now
TTITLE8=Jeffrey Flynn - Your Shine Introit
TTITLE9=Brian Doerksen - Your Shine
TTITLE10=Brian Houston - Spirit And Truth
TTITLE11=Robin Mark - Rivival
EXTD=
EXTT0=
EXTT1=
EXTT2=
EXTT3=
EXTT4=
EXTT5=
EXTT6=
EXTT7=
EXTT8=
EXTT9=
EXTT10=
EXTT11=
PLAYORDER=
